<svg xmlns="http://www.w3.org/2000/svg" viewBox="0 0 100 100" width="100" height="100">
    <!-- 背景圆 -->
    <circle cx="50" cy="50" r="48" fill="#f9f9f9" stroke="#e0e0e0" stroke-width="2"/>

    <!-- 中心节点 -->
    <circle cx="50" cy="50" r="15" fill="#4CAF50"/>

    <!-- 放射状连接线和节点 -->
    <g stroke-width="2">
        <!-- 右上方连接 -->
        <line x1="60" y1="40" x2="75" y2="25" stroke="#FF9800"/>
        <circle cx="80" cy="20" r="8" fill="#FF9800"/>

        <!-- 右下方连接 -->
        <line x1="60" y1="60" x2="75" y2="75" stroke="#2196F3"/>
        <circle cx="80" cy="80" r="8" fill="#2196F3"/>

        <!-- 左上方连接 -->
        <line x1="40" y1="40" x2="25" y2="25" stroke="#E91E63"/>
        <circle cx="20" cy="20" r="8" fill="#E91E63"/>

        <!-- 左下方连接 -->
        <line x1="40" y1="60" x2="25" y2="75" stroke="#9C27B0"/>
        <circle cx="20" cy="80" r="8" fill="#9C27B0"/>

        <!-- 灵感元素 - 小星星 -->
        <path d="M75,50 L77,55 L82,55 L78,59 L80,64 L75,61 L70,64 L72,59 L68,55 L73,55 Z" fill="#FFC107"/>
        <path d="M25,50 L27,55 L32,55 L28,59 L30,64 L25,61 L20,64 L22,59 L18,55 L23,55 Z" fill="#FFC107"/>
    </g>
</svg>